#!OML:ASF H:\Terrain\Patient Classification 1\Animal2\Wednesday\Animal2.ASF
:FULLY-SPECIFIED
:DEGREES
1285
root 10.0323 15.8822 -14.0934 22.3455 3.65999 1.1456
lowerback 20.0328 -1.19175 -0.577611
upperback -11.4923 -1.67735 0.856612
thorax -25.2007 -0.447939 2.04604
lowerneck -6.07451 8.68597 15.4118
upperneck -10.7575 9.81874 -22.6591
head 0.0241874 4.80259 -9.2999
rclavicle 1.22501e-014 1.59028e-015
rhumerus -60.1059 -27.6318 -23.3576
rradius 24.7344
rwrist 26.479
rhand 8.76531 20.5898
rfingers 7.12502
rthumb 33.9544 -6.20405
lclavicle 1.22501e-014 1.59028e-015
lhumerus -63.4712 21.1707 41.527
lradius 25.6388
lwrist 0.480115
lhand -8.47829 17.7074
lfingers 7.12502
lthumb 17.4486 46.9443
rfemur -56.9774 -7.9097 9.38315
rtibia 65.63
rfoot -34.5015 3.59384
rtoes -13.7882
lfemur -59.3362 0.439999 -7.09928
ltibia 61.4889
lfoot -26.3492 -4.10051
ltoes -29.5055
1286
root 10.0255 15.8997 -14.107 22.5376 3.58587 1.22441
lowerback 20.0916 -1.19228 -0.693009
upperback -11.5024 -1.72524 0.818043
thorax -25.2515 -0.451063 2.08844
lowerneck -6.27269 8.7103 15.5694
upperneck -10.6274 9.83459 -22.8158
head 0.118466 4.79398 -9.36556
rclavicle -6.28657e-015 1.11319e-014
rhumerus -60.2001 -27.5907 -23.3542
rradius 24.9225
rwrist 26.7652
rhand 11.7426 21.3877
rfingers 7.12502
rthumb 36.7772 -4.73408
lclavicle -6.28657e-015 1.11319e-014
lhumerus -63.3981 20.9158 41.7014
lradius 25.634
lwrist 0.0360822
lhand -5.56903 17.7517
lfingers 7.12502
lthumb 20.2466 46.7165
rfemur -57.1146 -7.73178 9.26398
rtibia 65.3782
rfoot -34.3656 3.35163
rtoes -14.8812
lfemur -59.4063 0.387121 -7.13271
ltibia 61.199
lfoot -26.2004 -3.58999
ltoes -30.5538
1287
root 10.019 15.9175 -14.1191 22.7499 3.46255 1.22264
lowerback 20.0686 -1.15216 -0.802072
upperback -11.4592 -1.6956 0.852398
thorax -25.1685 -0.417734 2.17754
lowerneck -6.55933 8.76657 15.4305
upperneck -10.5937 9.88843 -22.8003
head 0.177147 4.80863 -9.31818
rclavicle 3.28989e-014 7.7526e-015
rhumerus -60.0789 -27.5404 -23.3817
rradius 25.0701
rwrist 26.8379
rhand 14.5317 22.0999
rfingers 7.12502
rthumb 39.4107 -3.30124
lclavicle 3.28989e-014 7.7526e-015
lhumerus -63.2472 20.6925 41.9532
lradius 25.6425
lwrist 0.0239494
lhand -2.65925 17.8451
lfingers 7.12502
lthumb 23.041 46.4877
rfemur -57.2996 -7.57053 9.24967
rtibia 65.1419
rfoot -34.1337 3.19957
rtoes -15.5589
lfemur -59.4657 0.43104 -7.11485
ltibia 60.9089
lfoot -26.0482 -3.01269
ltoes -31.9662
1288
root 10.0149 15.9308 -14.1343 22.9867 3.39664 1.17537
lowerback 20.0905 -1.15156 -0.788125
upperback -11.4179 -1.67874 0.902634
thorax -25.1225 -0.40781 2.22165
lowerneck -6.72148 8.81656 15.145
upperneck -10.8032 9.92615 -22.6401
head 0.123164 4.83053 -9.21182
rclavicle -2.73329e-015 0
rhumerus -59.6888 -27.211 -23.6371
rradius 25.0436
rwrist 26.4857
rhand 16.7129 22.7145
rfingers 7.12502
rthumb 41.4615 -2.05343
lclavicle -2.73329e-015 0
lhumerus -63.1897 20.7164 41.7326
lradius 25.6594
lwrist -0.0770304
lhand 0.220977 18.2152
lfingers 7.12502
lthumb 25.802 46.4854
rfemur -57.5109 -7.52818 9.31687
rtibia 64.9237
rfoot -33.9468 3.01063
rtoes -16.4141
lfemur -59.5996 0.487542 -7.05474
ltibia 60.6324
lfoot -25.8603 -2.60703
ltoes -32.8483
1289
root 10.0081 15.9396 -14.1557 23.2479 3.48952 1.22113
lowerback 20.209 -1.23141 -0.757258
upperback -11.4409 -1.78095 0.912661
thorax -25.2338 -0.449586 2.26295
lowerneck -6.57818 8.79145 15.1037
upperneck -11.1068 9.86779 -22.6446
head 0.00104907 4.81838 -9.22756
rclavicle 2.75814e-015 1.39149e-015
rhumerus -59.3782 -26.752 -23.8527
rradius 25.0234
rwrist 26.1244
rhand 18.6751 23.2637
rfingers 7.12502
rthumb 43.2989 -0.875732
lclavicle 2.75814e-015 1.39149e-015
lhumerus -63.2393 20.5915 41.3117
lradius 25.7109
lwrist 0.0641373
lhand 2.7987 19.1385
lfingers 7.12502
lthumb 28.2682 47.0258
rfemur -57.7149 -7.56252 9.33221
rtibia 64.7098
rfoot -33.782 2.58736
rtoes -17.3174
lfemur -59.8465 0.409596 -7.01004
ltibia 60.3253
lfoot -25.5489 -2.81634
ltoes -32.0562
1290
root 9.99519 15.9532 -14.1844 23.6315 3.63948 1.39421
lowerback 20.2438 -1.29308 -0.890369
upperback -11.4858 -1.91562 0.901043
thorax -25.3134 -0.479344 2.38439
lowerneck -6.4399 8.75046 15.1099
upperneck -11.3585 9.79067 -22.7086
head -0.101545 4.79518 -9.27128
rclavicle 1.5381e-014 7.55382e-015
rhumerus -59.25 -26.5298 -23.7589
rradius 25.042
rwrist 26.0757
rhand 20.5057 23.6642
rfingers 7.12502
rthumb 45.0059 0.166941
lclavicle 1.5381e-014 7.55382e-015
lhumerus -63.1407 20.2792 41.0505
lradius 25.6868
lwrist 0.691273
lhand 4.72256 20.0665
lfingers 7.12502
lthumb 30.1053 47.6347
rfemur -58.0675 -7.60525 9.22093
rtibia 64.5003
rfoot -33.5419 2.71433
rtoes -16.3927
lfemur -60.2794 0.317531 -7.0754
ltibia 59.9908
lfoot -25.1485 -3.12192
ltoes -31.1102
1291
root 9.98262 15.9726 -14.2077 24.0147 3.79053 1.42538
lowerback 20.1338 -1.34848 -0.906078
upperback -11.4753 -1.99294 0.924485
thorax -25.2172 -0.507118 2.44874
lowerneck -6.5837 8.74832 15.0515
upperneck -11.4588 9.7591 -22.71
head -0.114916 4.7766 -9.26201
rclavicle -1.93318e-014 1.98785e-016
rhumerus -59.1677 -26.62 -23.3678
rradius 25.0436
rwrist 26.2728
rhand 22.351 23.9482
rfingers 7.12502
rthumb 46.7185 1.15897
lclavicle -1.93318e-014 1.98785e-016
lhumerus -63.0291 20.2049 40.4334
lradius 25.6375
lwrist 1.15439
lhand 6.20429 20.9146
lfingers 7.12502
lthumb 31.518 48.216
rfemur -58.4031 -7.59933 9.25822
rtibia 64.2718
rfoot -33.3483 3.00395
rtoes -14.7348
lfemur -60.7197 0.298074 -7.00712
ltibia 59.6901
lfoot -24.8406 -3.10496
ltoes -31.3388
1292
root 9.97571 15.9894 -14.222 24.3095 3.8181 1.41408
lowerback 20.0125 -1.40768 -0.844552
upperback -11.4455 -2.06078 0.9026
thorax -25.0901 -0.552004 2.40918
lowerneck -6.73305 8.73659 14.9911
upperneck -11.5733 9.71576 -22.5647
head -0.146176 4.74898 -9.20511
rclavicle 1.32192e-014 9.54166e-015
rhumerus -59.1549 -26.8403 -22.8545
rradius 25.0537
rwrist 26.5869
rhand 23.9819 24.4665
rfingers 7.12502
rthumb 48.2248 2.35931
lclavicle 1.32192e-014 9.54166e-015
lhumerus -63.0019 20.1044 39.525
lradius 25.6461
lwrist 1.58322
lhand 7.33015 21.9638
lfingers 7.12502
lthumb 32.5899 49.0496
rfemur -58.6522 -7.64137 9.34933
rtibia 64.0385
rfoot -33.3114 2.88232
rtoes -14.928
lfemur -60.9866 0.337138 -6.96385
ltibia 59.4356
lfoot -24.6208 -3.02868
ltoes -31.705
1293
root 9.97128 15.9984 -14.2355 24.572 3.69552 1.37476
lowerback 20.0108 -1.40448 -0.78976
upperback -11.4219 -2.05311 0.838856
thorax -25.0594 -0.568287 2.29759
lowerneck -6.96005 8.69949 14.9734
upperneck -11.6559 9.63075 -22.4128
head -0.161613 4.6939 -9.15321
rclavicle 2.9768e-014 8.94531e-015
rhumerus -59.1479 -26.8695 -22.5573
rradius 25.1641
rwrist 26.8313
rhand 24.9251 24.7713
rfingers 7.12502
rthumb 49.0923 3.08475
lclavicle 2.9768e-014 8.94531e-015
lhumerus -62.8257 19.676 38.9106
lradius 25.6151
lwrist 2.16992
lhand 7.77283 22.5786
lfingers 7.12502
lthumb 33.011 49.5765
rfemur -58.9274 -7.61068 9.41353
rtibia 63.8044
rfoot -33.2089 2.81841
rtoes -15.7362
lfemur -61.1745 0.569151 -6.99915
ltibia 59.2096
lfoot -24.4207 -3.17338
ltoes -31.4818
1294
root 9.96654 16.0094 -14.2461 24.7258 3.52569 1.29336
lowerback 20.1055 -1.35955 -0.793357
upperback -11.3517 -1.99272 0.829967
thorax -25.0242 -0.545717 2.26492
lowerneck -7.27174 8.64741 15.1058
upperneck -11.6023 9.51438 -22.6065
head -0.0934025 4.61653 -9.23707
rclavicle 4.12975e-014 6.36111e-015
rhumerus -58.8858 -26.5307 -22.5925
rradius 25.3478
rwrist 26.643
rhand 25.5886 24.6914
rfingers 7.12502
rthumb 49.701 3.31306
lclavicle 4.12975e-014 6.36111e-015
lhumerus -62.6417 19.2302 38.4601
lradius 25.6317
lwrist 2.50203
lhand 7.61509 22.7027
lfingers 7.12502
lthumb 32.861 49.7321
rfemur -59.0531 -7.42368 9.45384
rtibia 63.5301
rfoot -32.9801 2.83283
rtoes -16.0994
lfemur -61.2084 0.787135 -6.98016
ltibia 58.9631
lfoot -24.2644 -3.21833
ltoes -31.3749
1295
root 9.96066 16.0295 -14.2551 24.8224 3.41526 1.24635
lowerback 20.1927 -1.31453 -0.873984
upperback -11.2496 -1.94142 0.887668
thorax -24.9312 -0.506015 2.35772
lowerneck -7.30832 8.58203 15.1747
upperneck -11.7367 9.38787 -22.8844
head -0.122004 4.55794 -9.3567
rclavicle 7.7526e-015 1.0138e-014
rhumerus -58.5258 -26.2709 -22.3873
rradius 25.4598
rwrist 26.3538
rhand 26.3218 24.6677
rfingers 7.12502
rthumb 50.3719 3.64246
lclavicle 7.7526e-015 1.0138e-014
lhumerus -62.5855 19.1842 37.6154
lradius 25.6196
lwrist 2.20099
lhand 7.33246 22.9006
lfingers 7.12502
lthumb 32.5921 49.986
rfemur -59.0818 -7.28769 9.48166
rtibia 63.2379
rfoot -32.7465 2.94384
rtoes -15.8149
lfemur -61.1185 0.795669 -6.90957
ltibia 58.6642
lfoot -24.0751 -3.02877
ltoes -31.0479
1296
root 9.95346 16.05 -14.2659 24.9919 3.36542 1.21301
lowerback 20.1853 -1.28275 -0.920899
upperback -11.1555 -1.90399 0.915651
thorax -24.788 -0.483384 2.39829
lowerneck -7.11027 8.48518 15.0182
upperneck -12.1346 9.23374 -22.7907
head -0.311995 4.50688 -9.33377
rclavicle 7.7526e-015 7.95139e-016
rhumerus -58.2881 -26.2168 -21.9577
rradius 25.4873
rwrist 26.2205
rhand 26.6874 24.7496
rfingers 7.12502
rthumb 50.7057 3.90539
lclavicle 7.7526e-015 7.95139e-016
lhumerus -62.5059 19.3062 36.4028
lradius 25.5275
lwrist 1.53655
lhand 7.18285 23.0892
lfingers 7.12502
lthumb 32.4497 50.2039
rfemur -59.195 -7.2854 9.5951
rtibia 62.9582
rfoot -32.596 2.63725
rtoes -16.5804
lfemur -61.1202 0.78756 -6.84123
ltibia 58.3398
lfoot -23.8741 -2.80053
ltoes -31.0589
1297
root 9.94423 16.0647 -14.2831 25.2482 3.32061 1.24516
lowerback 20.1698 -1.28804 -0.969562
upperback -11.1224 -1.93434 0.882542
thorax -24.7273 -0.493613 2.39732
lowerneck -7.03579 8.39476 14.7855
upperneck -12.3522 9.11145 -22.463
head -0.447637 4.45804 -9.20543
rclavicle -3.97569e-016 7.55382e-015
rhumerus -58.0719 -26.0047 -21.6657
rradius 25.5233
rwrist 26.0835
rhand 26.5222 24.8584
rfingers 7.12502
rthumb 50.5549 3.93199
lclavicle -3.97569e-016 7.55382e-015
lhumerus -62.4391 18.9897 35.4325
lradius 25.6139
lwrist 1.36788
lhand 6.72743 23.1198
lfingers 7.12502
lthumb 32.0162 50.3225
rfemur -59.4464 -7.28597 9.64791
rtibia 62.7199
rfoot -32.4088 2.26128
rtoes -17.6521
lfemur -61.2807 0.836189 -6.84896
ltibia 57.9958
lfoot -23.6637 -2.67351
ltoes -31.9287
1298
root 9.93369 16.0747 -14.3031 25.5231 3.40522 1.20252
lowerback 20.2226 -1.35843 -0.896605
upperback -11.133 -2.00479 0.911266
thorax -24.7769 -0.529099 2.42079
lowerneck -7.04776 8.32355 14.6384
upperneck -12.3361 9.02842 -22.265
head -0.47997 4.41748 -9.12012
rclavicle 6.70898e-016 -8.44835e-015
rhumerus -57.7689 -25.6486 -21.3876
rradius 25.6123
rwrist 25.9875
rhand 26.3523 24.9811
rfingers 7.12502
rthumb 50.3997 3.9708
lclavicle 6.70898e-016 -8.44835e-015
lhumerus -62.3992 18.3105 34.8764
lradius 25.8719
lwrist 1.89725
lhand 5.5573 23.3857
lfingers 7.12502
lthumb 30.9014 50.806
rfemur -59.731 -7.27739 9.75981
rtibia 62.5327
rfoot -32.1133 2.41397
rtoes -16.8106
lfemur -61.53 0.857358 -6.71516
ltibia 57.6621
lfoot -23.3845 -2.67825
ltoes -32.5056
1299
root 9.92129 16.0911 -14.3168 25.6362 3.55299 1.21122
lowerback 20.3811 -1.42309 -0.922285
upperback -11.0547 -2.09589 0.950951
thorax -24.7635 -0.556222 2.52247
lowerneck -6.99255 8.19708 14.5853
upperneck -12.4433 8.85037 -22.1958
head -0.560277 4.33538 -9.10908
rclavicle -1.67476e-014 -1.2424e-014
rhumerus -57.3518 -25.2147 -21.243
rradius 25.7354
rwrist 25.5879
rhand 26.2024 25.0798
rfingers 7.12502
rthumb 50.2627 3.99608
lclavicle -1.67476e-014 -1.2424e-014
lhumerus -62.2275 17.8489 34.1874
lradius 25.9714
lwrist 2.21674
lhand 4.21274 23.8018
lfingers 7.12502
lthumb 29.6188 51.4574
rfemur -59.7714 -7.29544 9.82799
rtibia 62.3699
rfoot -31.9292 2.43849
rtoes -16.0791
lfemur -61.5742 0.727403 -6.59555
ltibia 57.3378
lfoot -23.2006 -2.39693
ltoes -33.4681
